<svg fill="none" height="52" viewBox="0 0 216 52" width="216" xmlns="http://www.w3.org/2000/svg"><g fill="#000"><path d="m13.3868 40.928c-1.408 0-2.752-.208-4.03205-.624-1.92-.608-3.472-1.92-4.656-3.936-1.152-2.016-1.728-4.368-1.728-7.056 0-2.336.48-4.752 1.44-7.248-1.024-.736-1.872-1.6-2.544-2.592s-1.071998-2.144-1.199998-3.456c-.032-.256-.048-.48-.048-.672 0-.224 0-.448 0-.672 0-2.208.495998-4.176 1.487998-5.904 1.024-1.728 2.384-3.184 4.08-4.368 1.696-1.216 3.6-2.128 5.71205-2.736 2.112-.64 4.256-.959998 6.432-.959998 2.144 0 4.224.319998 6.24.959998s3.808 1.632 5.376 2.976c1.6 1.344 2.832 3.056 3.696 5.136.896 2.048 1.28 4.512 1.152 7.392 1.312-.864 2.544-1.792 3.696-2.784s2.032-2.08 2.64-3.264c.16-.32.368-.48.624-.48.192 0 .288.112.288.336 0 .032-.016.128-.048.288-.032.128-.08.24-.144.336-.896 1.408-1.936 2.736-3.12 3.984s-2.56 2.352-4.128 3.312c-.032.704-.144 1.504-.336 2.4-.16.864-.4 1.776-.72 2.736-.608 1.952-1.584 3.92-2.928 5.904-1.312 1.984-2.88 3.808-4.704 5.472s-3.808 2.992-5.952 3.984c-2.144 1.024-4.336 1.536-6.576 1.536zm1.584-17.808c2.688 0 5.52-.384 8.496-1.152 3.008-.8 5.824-1.888 8.448-3.264.064-.416.096-.816.096-1.2 0-.416 0-.816 0-1.2 0-2.624-.384-4.864-1.152-6.72-.736-1.888-1.744-3.424-3.024-4.608s-2.72-2.048-4.32-2.592c-1.6-.576-3.264-.864-4.992-.864-1.856 0-3.696.304-5.52.912s-3.47205 1.488-4.94405 2.64c-1.472 1.12-2.656 2.48-3.552 4.08-.864 1.6-1.296 3.392-1.296 5.376 0 .608.048 1.232.144 1.872.192 1.472.832 2.688 1.92 3.648.448-.96 1.056-2.032 1.824-3.216.768-1.216 1.648-2.432 2.64-3.648 1.02405-1.248 2.11205-2.384 3.26405-3.408 1.184-1.024 2.4-1.84 3.648-2.448 1.28-.64 2.56-.96 3.84-.96.544 0 1.088.064 1.632.192.576.128 1.12.352 1.632.672.256.16.384.304.384.432 0 .096-.08.176-.24.24-.128.064-.304.064-.528 0-.416-.128-.88-.192-1.392-.192-1.152 0-2.32.352-3.504 1.056-1.184.672-2.336 1.568-3.456 2.688-1.12 1.088-2.16 2.272-3.12 3.552-.96 1.248-1.808 2.48-2.54405 3.696-.704 1.184-1.248 2.192-1.632 3.024 1.952.928 4.36805 1.392 7.24805 1.392zm-1.2 16.656c1.792 0 3.536-.448 5.232-1.344 1.728-.896 3.344-2.112 4.848-3.648 1.536-1.536 2.896-3.248 4.08-5.136s2.128-3.824 2.832-5.808c.192-.544.368-1.104.528-1.68.16-.608.256-1.184.288-1.728-2.592 1.376-5.36 2.432-8.304 3.168s-5.76 1.104-8.448 1.104c-2.976 0-5.56805-.432-7.77605-1.296-.992 2.528-1.488 5.008-1.488 7.44 0 1.76.32 3.344.96 4.752s1.648 2.464 3.024 3.168c1.40805.672 2.81605 1.008 4.22405 1.008z"/><path d="m44.6572 38.336c-.864-.096-1.6479-.496-2.3519-1.2-.672-.736-1.136-1.712-1.3921-2.928-.032-.224-.064-.416-.096-.576 0-.192 0-.4 0-.624 0-1.28.2881-2.304.8641-3.072.576-.8 1.104-1.216 1.584-1.248.512.032 1.1359-.08 1.8719-.336.736-.288 1.3761-.672 1.9201-1.152.928-.736 1.3919-1.488 1.3919-2.256 0-.8-.4639-1.2-1.3919-1.2-.512 0-1.1681.176-1.9681.528-.768.352-1.664.96-2.688 1.824-1.28 1.088-2.6079 2.544-3.9839 4.368-.192.416-.416 1.04-.672 1.872-.256.8-.4801 1.632-.6721 2.496-.16.864-.2399 1.6-.2399 2.208 0 .48.0799.8.2399.96h-3.0239c-.352 0-.528-.144-.528-.432 0-.096.0159-.176.0479-.24s.064-.192.096-.384c.448-1.664 1.04-3.232 1.776-4.704s1.472-3.024 2.2081-4.656c-1.1201 2.08-2.144 3.92-3.072 5.52-.896 1.568-1.584 2.576-2.064 3.024-.064.064-.144.096-.24.096-.128 0-.208-.08-.24-.24-.064-.16-.032-.32.096-.48.672-.896 1.44-2.128 2.304-3.696.896-1.568 1.84-3.312 2.832-5.232.992-1.952 1.9999-3.92 3.0239-5.904s2.0161-3.856 2.9761-5.616c.992-1.76 1.888-3.248 2.688-4.464.576-.864 1.12-1.472 1.632-1.824.512-.384 1.0399-.576 1.584-.576h.24c.288 0 .608.048.96.144.384.096.736.112 1.056.048-.608.48-1.344 1.264-2.208 2.352s-1.776 2.384-2.736 3.888-1.9361 3.104-2.9281 4.8c-.96 1.696-1.872 3.376-2.736 5.04-.32.64-.6239 1.312-.9119 2.016s-.5601 1.408-.8161 2.112c.672-.832 1.44-1.696 2.304-2.592s1.76-1.712 2.688-2.448c.96-.768 1.9041-1.328 2.832-1.68 1.056-.384 1.936-.576 2.64-.576.736 0 1.264.176 1.584.528.352.352.5281.8.5281 1.344 0 .608-.24 1.344-.72 2.208-.48.832-1.1361 1.552-1.9681 2.16-.704.48-1.44.896-2.208 1.248s-1.68.576-2.736.672c-.192.448-.336.912-.432 1.392-.0639.448-.096.896-.096 1.344 0 1.248.2881 2.352.8641 3.312.576.928 1.328 1.392 2.256 1.392.448 0 .928-.128 1.44-.384.544-.256 1.104-.688 1.68-1.296.64-.64 1.28-1.552 1.92-2.736.672-1.184 1.344-2.48 2.016-3.888.128-.256.272-.384.432-.384.192 0 .288.128.288.384 0 .128-.048.288-.144.48-.928 2.144-1.824 3.856-2.688 5.136-.832 1.248-1.648 2.192-2.448 2.832-.768.608-1.5201.992-2.2561 1.152s-1.472.208-2.208.144z"/><path d="m63.8216 38.144c-.352.032-.752-.048-1.2-.24s-.848-.544-1.2-1.056c-.32-.512-.48-1.232-.48-2.16 0-.768.144-1.696.432-2.784-.384.608-.88 1.36-1.488 2.256-.608.864-1.264 1.632-1.968 2.304-.608.576-1.184.992-1.728 1.248s-1.04.384-1.488.384c-.832 0-1.504-.368-2.016-1.104-.512-.768-.768-1.76-.768-2.976 0-1.28.32-2.736.96-4.368s1.68-3.328 3.12-5.088c.928-1.12 2.048-2.016 3.36-2.688 1.344-.704 2.656-1.056 3.936-1.056.736 0 1.44.128 2.112.384.672.224 1.264.608 1.776 1.152.224.224.336.48.336.768 0 .192-.08.352-.24.48s-.368.16-.624.096c-.352-1.12-1.104-1.68-2.256-1.68-.544 0-1.168.176-1.872.528-1.088.576-2.224 1.52-3.408 2.832-1.152 1.312-2.16 2.672-3.024 4.08-.128.192-.336.56-.624 1.104-.256.544-.512 1.152-.768 1.824s-.432 1.328-.528 1.968c-.032.192-.048.336-.048.432v.336c0 1.056.4 1.584 1.2 1.584.96 0 2.048-.704 3.264-2.112.832-1.024 1.584-2.096 2.256-3.216s1.36-2.32 2.064-3.6c.48-.864.928-1.584 1.344-2.16s1.008-.864 1.776-.864c.352 0 .704.048 1.056.144s.72.112 1.104.048c-.256.256-.608.736-1.056 1.44-.416.704-.864 1.504-1.344 2.4s-.912 1.808-1.296 2.736-.656 1.728-.816 2.4c-.032.192-.08.464-.144.816-.032.352-.048.608-.048.768 0 .896.256 1.344.768 1.344s1.056-.304 1.632-.912c.608-.608 1.2-1.36 1.776-2.256s1.104-1.792 1.584-2.688c.48-.928.864-1.68 1.152-2.256.128-.32.32-.48.576-.48.16 0 .24.112.24.336 0 .096-.048.272-.144.528-.384.8-.848 1.712-1.392 2.736-.544.992-1.136 1.968-1.776 2.928-.64.928-1.312 1.712-2.016 2.352-.672.608-1.36.944-2.064 1.008z"/><path d="m63.0326 51.104c-.384 0-.768-.064-1.152-.192-.416-.096-.832-.112-1.248-.048.192-.192.56-.752 1.104-1.68.544-.896 1.184-2.016 1.92-3.36.704-1.344 1.456-2.8 2.256-4.368s1.552-3.104 2.256-4.608c.704-1.536 1.296-2.928 1.776-4.176.512-1.28.832-2.288.96-3.024-.288.416-.576.656-.864.72-.256.032-.32-.064-.192-.288.064-.128.192-.432.384-.912.224-.512.416-.944.576-1.296.256-.64.464-1.344.624-2.112.192-.768.288-1.504.288-2.208 0-.448-.048-.832-.144-1.152s-.272-.496-.528-.528c0 0 .176-.032.528-.096s.72-.128 1.104-.192.64-.096.768-.096c.192-.032.368-.048.528-.048.16-.032.304-.048.432-.048.288 0 .48.112.576.336.128.192.192.608.192 1.248 0 .8-.144 1.824-.432 3.072-.256 1.216-.56 2.288-.912 3.216.352-.576.8-1.312 1.344-2.208.576-.896 1.232-1.808 1.968-2.736s1.504-1.696 2.304-2.304c.8-.64 1.584-.96 2.352-.96.16 0 .368.032.624.096.896.224 1.52.672 1.872 1.344.384.64.576 1.408.576 2.304 0 .96-.192 2.016-.576 3.168-.352 1.152-.832 2.288-1.44 3.408-.608 1.088-1.28 2.08-2.016 2.976-.896 1.12-1.968 2.016-3.216 2.688s-2.528 1.008-3.84 1.008c-1.184 0-2.288-.304-3.312-.912l-4.56 11.472c-.448.96-.88 1.616-1.296 1.968s-.944.528-1.584.528zm9.216-14.064c.896 0 1.904-.416 3.024-1.248s2.192-1.888 3.216-3.168c1.056-1.312 1.936-2.624 2.64-3.936.48-.896.832-1.712 1.056-2.448.224-.768.336-1.424.336-1.968 0-1.248-.448-1.872-1.344-1.872-.416 0-.96.224-1.632.672-.64.448-1.392 1.264-2.256 2.448-.928 1.28-1.952 2.896-3.072 4.848-1.088 1.92-2.208 3.952-3.36 6.096.384.384.848.576 1.392.576z"/><path d="m91.9234 18.512c-.48 0-.88-.16-1.2-.48-.288-.352-.432-.768-.432-1.248 0-.608.24-1.136.72-1.584s1.008-.672 1.584-.672c.512 0 .928.16 1.248.48s.48.704.48 1.152c0 .608-.24 1.152-.72 1.632s-1.04.72-1.68.72zm-3.888 19.488c-1.184 0-2.016-.336-2.496-1.008-.48-.704-.72-1.504-.72-2.4 0-.48.048-.96.144-1.44.128-.512.272-.976.432-1.392l3.216-8.208c.096-.256.144-.48.144-.672 0-.32-.08-.592-.24-.816-.16-.256-.272-.432-.336-.528l2.64-.096c.48-.032.816.032 1.008.192.224.128.336.288.336.48s-.112.544-.336 1.056l-3.984 9.36s-.096.208-.288.624c-.16.384-.256.64-.288.768-.096.48-.16.784-.192.912s-.048.208-.048.24v.384c0 .416.096.768.288 1.056.224.288.592.432 1.104.432.32 0 .688-.096 1.104-.288s.72-.384.912-.576c.8-.832 1.584-1.92 2.352-3.264.8-1.376 1.536-2.736 2.208-4.08.128-.32.288-.48.48-.48.16 0 .24.112.24.336 0 .128-.048.32-.144.576-.32.672-.72 1.504-1.2 2.496s-1.056 1.984-1.728 2.976c-.64.96-1.344 1.76-2.112 2.4s-1.6.96-2.496.96z"/><path d="m105.353 38.144c-.352.032-.752-.048-1.2-.24s-.848-.544-1.2-1.056c-.32-.512-.48-1.232-.48-2.16 0-.768.144-1.696.432-2.784-.384.608-.88 1.36-1.488 2.256-.608.864-1.264 1.632-1.9681 2.304-.608.576-1.184.992-1.728 1.248s-1.04.384-1.488.384c-.832 0-1.504-.368-2.016-1.104-.512-.768-.768-1.76-.768-2.976 0-1.28.32-2.736.96-4.368s1.68-3.328 3.12-5.088c.928-1.12 2.048-2.016 3.3601-2.688 1.344-.704 2.656-1.056 3.936-1.056.736 0 1.44.128 2.112.384.672.224 1.264.608 1.776 1.152.224.224.336.48.336.768 0 .192-.08.352-.24.48s-.368.16-.624.096c-.352-1.12-1.104-1.68-2.256-1.68-.544 0-1.168.176-1.872.528-1.088.576-2.224 1.52-3.408 2.832-1.1521 1.312-2.1601 2.672-3.0241 4.08-.128.192-.336.56-.624 1.104-.256.544-.512 1.152-.768 1.824s-.432 1.328-.528 1.968c-.032.192-.048.336-.048.432v.336c0 1.056.4 1.584 1.2 1.584.96 0 2.048-.704 3.2641-2.112.832-1.024 1.584-2.096 2.256-3.216s1.36-2.32 2.064-3.6c.48-.864.928-1.584 1.344-2.16s1.008-.864 1.776-.864c.352 0 .704.048 1.056.144s.72.112 1.104.048c-.256.256-.608.736-1.056 1.44-.416.704-.864 1.504-1.344 2.4s-.912 1.808-1.296 2.736-.656 1.728-.816 2.4c-.032.192-.08.464-.144.816-.032.352-.048.608-.048.768 0 .896.256 1.344.768 1.344s1.056-.304 1.632-.912c.608-.608 1.2-1.36 1.776-2.256s1.104-1.792 1.584-2.688c.48-.928.864-1.68 1.152-2.256.128-.32.32-.48.576-.48.16 0 .24.112.24.336 0 .096-.048.272-.144.528-.384.8-.848 1.712-1.392 2.736-.544.992-1.136 1.968-1.776 2.928-.64.928-1.312 1.712-2.016 2.352-.672.608-1.36.944-2.064 1.008z"/><path d="m141.129 42.512c-2.304 0-4.528-.288-6.672-.864-2.144-.544-4.064-1.376-5.76-2.496s-3.056-2.528-4.08-4.224c-.992-1.696-1.488-3.696-1.488-6 0-1.696.304-3.504.912-5.424.352-1.088.848-2.016 1.488-2.784.672-.768 1.36-1.36 2.064-1.776s1.264-.624 1.68-.624c.544 0 .768.256.672.768-.192.224-.528.496-1.008.816-.448.288-.944.672-1.488 1.152-.512.48-1.008 1.104-1.488 1.872-.448.736-.768 1.68-.96 2.832-.064.416-.128.832-.192 1.248-.032.416-.048.816-.048 1.2 0 2.08.448 3.92 1.344 5.52s2.064 2.928 3.504 3.984c1.472 1.056 3.072 1.84 4.8 2.352 1.76.544 3.488.8 5.184.768 2.592-.064 4.896-.432 6.912-1.104 2.016-.64 3.808-1.504 5.376-2.592s2.944-2.288 4.128-3.6c.992-1.088 1.984-2.416 2.976-3.984s1.952-3.248 2.88-5.04c.96-1.824 1.856-3.632 2.688-5.424.864-1.792 1.664-3.488 2.4-5.088s1.376-2.96 1.92-4.08c.544-1.152.992-1.952 1.344-2.4-2.528-.768-4.96-1.36-7.296-1.776-2.304-.448-4.768-.736-7.392-.864-2.4-.128-4.544.144-6.432.816-1.856.672-3.44 1.584-4.752 2.736-1.28 1.12-2.272 2.352-2.976 3.696-.672 1.344-1.008 2.64-1.008 3.888 0 1.088.272 2.064.816 2.928.576.832 1.44 1.44 2.592 1.824.768.224 1.52.336 2.256.336 1.152 0 2.16-.24 3.024-.72s1.584-1.056 2.16-1.728c.608-.704 1.056-1.36 1.344-1.968.32-.64.48-1.104.48-1.392v-.048c.16-.192.32-.288.48-.288.32 0 .48.224.48.672-.16 1.376-.656 2.576-1.488 3.6-.8 1.024-1.776 1.808-2.928 2.352s-2.368.816-3.648.816c-.896 0-1.76-.144-2.592-.432-1.76-.64-3.088-1.664-3.984-3.072-.896-1.44-1.344-2.992-1.344-4.656 0-1.408.304-2.8.912-4.176.608-1.408 1.536-2.688 2.784-3.84 1.248-1.184 2.8-2.128 4.656-2.832s4.032-1.056 6.528-1.056h1.008c.256 0 .688.032 1.296.096 1.504.128 3.024.384 4.56.768 1.536.352 3.008.752 4.416 1.2s2.704.88 3.888 1.296 2.16.72 2.928.912c.096-.128.368-.352.816-.672.48-.32.96-.656 1.44-1.008.512-.352.912-.656 1.2-.912s.304-.384.048-.384h-.048c.096-.032.224-.048.384-.048.32 0 .56.112.72.336.16.192.24.4.24.624 0 .416-.192.624-.576.624-.064 0-.192-.032-.384-.096-.128-.128-.368-.064-.72.192-.32.256-.656.56-1.008.912-.32.32-.576.592-.768.816.704.224 1.584.496 2.64.816 1.088.288 2.24.592 3.456.912 1.248.288 2.464.528 3.648.72s2.24.288 3.168.288c.896 0 1.6-.112 2.112-.336.544-.224.816-.592.816-1.104 0-.192.032-.352.096-.48.096-.16.256-.24.48-.24.16 0 .272.144.336.432.064.256.096.464.096.624 0 .768-.416 1.392-1.248 1.872-.8.48-1.808.72-3.024.72-.192 0-.384 0-.576 0-.192-.032-.4-.064-.624-.096-3.584-.448-6.384-1.024-8.4-1.728-1.984-.704-3.232-1.168-3.744-1.392-1.44 2.304-2.624 4.672-3.552 7.104s-1.808 4.864-2.64 7.296c-.8 2.432-1.744 4.784-2.832 7.056-1.056 2.272-2.464 4.416-4.224 6.432-1.28 1.44-2.848 2.656-4.704 3.648-1.824.992-3.808 1.728-5.952 2.208-2.144.512-4.32.768-6.528.768z"/><path d="m170.93 38c-1.216 0-2.112-.4-2.688-1.2-.576-.832-.864-1.84-.864-3.024 0-1.44.336-2.944 1.008-4.512.64-1.472 1.456-2.816 2.448-4.032s2.064-2.192 3.216-2.928c1.152-.768 2.272-1.152 3.36-1.152 1.216 0 2.112.4 2.688 1.2s.864 1.808.864 3.024c0 1.472-.336 2.976-1.008 4.512-.384.864-.928 1.824-1.632 2.88-.704 1.024-1.504 1.968-2.4 2.832.192.352.464.656.816.912.352.224.832.336 1.44.336.768 0 1.488-.32 2.16-.96.704-.64 1.344-1.408 1.92-2.304.576-.928 1.088-1.856 1.536-2.784s.816-1.68 1.104-2.256c.096-.192.256-.288.48-.288.128 0 .224.064.288.192.064.096.048.256-.048.48-.192.48-.512 1.2-.96 2.16-.448.928-.992 1.904-1.632 2.928-.64.992-1.376 1.84-2.208 2.544s-1.76 1.056-2.784 1.056c-.704 0-1.312-.112-1.824-.336-.512-.256-.928-.56-1.248-.912-.672.512-1.344.912-2.016 1.2s-1.344.432-2.016.432zm.72-1.056c.864 0 1.792-.416 2.784-1.248-.256-.384-.448-.784-.576-1.2s-.192-.8-.192-1.152c0-.576.128-1.072.384-1.488.288-.416.72-.624 1.296-.624.416 0 .752.16 1.008.48.288.288.432.624.432 1.008 0 .096-.016.192-.048.288 0 .064-.016.144-.048.24.544-.736 1.056-1.6 1.536-2.592 1.056-2.272 1.584-4.144 1.584-5.616 0-.736-.144-1.312-.432-1.728s-.72-.624-1.296-.624c-.672 0-1.408.288-2.208.864-.768.576-1.52 1.344-2.256 2.304-.704.96-1.328 2.032-1.872 3.216-.512 1.088-.928 2.144-1.248 3.168-.288.992-.432 1.856-.432 2.592 0 .64.128 1.152.384 1.536s.656.576 1.2.576z"/><path d="m186.24 38c-.352 0-.784-.08-1.296-.24-.48-.16-.912-.448-1.296-.864-.352-.448-.528-1.104-.528-1.968 0-.832.192-1.632.576-2.4.416-.8.8-1.568 1.152-2.304-.096 0-.208-.032-.336-.096-.096-.064-.144-.16-.144-.288s.032-.256.096-.384c.128-.256.272-.528.432-.816s.304-.592.432-.912c.48-.992.96-1.936 1.44-2.832.48-.928.896-1.744 1.248-2.448s.96-1.056 1.824-1.056h2.976c-.544.416-1.04.88-1.488 1.392-.416.48-.944 1.376-1.584 2.688 0 0-.112.224-.336.672s-.512 1.024-.864 1.728c-.32.672-.656 1.36-1.008 2.064-.32.704-.592 1.296-.816 1.776-.416.896-.688 1.616-.816 2.16-.128.512-.192.992-.192 1.44 0 1.056.352 1.584 1.056 1.584.768 0 1.696-.624 2.784-1.872.896-1.056 1.776-2.32 2.64-3.792s1.68-2.992 2.448-4.56c.8-1.568 1.504-2.976 2.112-4.224.352-.704.976-1.056 1.872-1.056h2.64c-.48.384-.88.752-1.2 1.104-.32.32-.64.768-.96 1.344-.288.544-.688 1.328-1.2 2.352-.416.864-.864 1.792-1.344 2.784-.448.96-.848 1.872-1.2 2.736s-.576 1.568-.672 2.112c-.032.32-.064.56-.096.72s-.048.336-.048.528c0 .608.096 1.04.288 1.296.224.256.48.384.768.384.768 0 1.536-.432 2.304-1.296.8-.864 1.552-1.92 2.256-3.168.736-1.248 1.36-2.432 1.872-3.552.192-.352.368-.528.528-.528.192 0 .288.112.288.336 0 .16-.064.352-.192.576-.352.768-.784 1.648-1.296 2.64s-1.088 1.968-1.728 2.928-1.344 1.76-2.112 2.4c-.768.608-1.6.912-2.496.912-.8 0-1.456-.288-1.968-.864-.512-.608-.768-1.456-.768-2.544 0-.864.16-1.792.48-2.784-.544.96-1.168 1.92-1.872 2.88s-1.456 1.76-2.256 2.4c-.8.608-1.6.912-2.4.912z"/><path d="m207.666 38.048c-.608 0-1.216-.24-1.824-.72-.608-.512-.912-1.328-.912-2.448 0-.864.208-1.856.624-2.976.384-1.088.896-2.144 1.536-3.168.672-1.024 1.152-1.856 1.44-2.496.096-.256.144-.48.144-.672 0-.576-.368-.992-1.104-1.248-.704-.256-1.632-.4-2.784-.432l-.576 1.584c-.352 1.024-.848 2.224-1.488 3.6-.608 1.376-1.296 2.704-2.064 3.984-.736 1.28-1.504 2.304-2.304 3.072-.064.064-.144.096-.24.096-.128 0-.208-.08-.24-.24-.064-.16 0-.352.192-.576 1.248-1.664 2.368-3.504 3.36-5.52.992-2.048 1.824-4.128 2.496-6.24.704-2.112 1.216-4.064 1.536-5.856.096-.512.272-.88.528-1.104.256-.256.528-.384.816-.384.416 0 .8.208 1.152.624.352.384.528.944.528 1.68 0 .128-.016.272-.048.432 0 .16-.016.32-.048.48-.128.672-.512 1.312-1.152 1.92-.608.576-1.104 1.008-1.488 1.296.32.032.656.064 1.008.096h1.152c1.504 0 2.992-.096 4.464-.288.064.192.096.336.096.432 0 .416-.128.944-.384 1.584-.224.64-.464 1.216-.72 1.728-.128.288-.384.816-.768 1.584-.384.736-.8 1.584-1.248 2.544-.448.928-.832 1.856-1.152 2.784-.288.896-.432 1.664-.432 2.304 0 .832.32 1.248.96 1.248.48 0 1.008-.304 1.584-.912.576-.64 1.136-1.408 1.68-2.304.576-.928 1.088-1.824 1.536-2.688.48-.896.848-1.6 1.104-2.112.128-.32.304-.48.528-.48.128 0 .192.112.192.336 0 .128-.048.32-.144.576-.352.736-.768 1.568-1.248 2.496s-1.024 1.84-1.632 2.736c-.576.896-1.216 1.68-1.92 2.352-.672.64-1.408 1.056-2.208 1.248-.096.032-.272.048-.528.048z"/></g></svg>